HIERARCHY
ROOT Hips
{
	OFFSET 0.000000 0.000000 0.000000 
	CHANNELS 6 Xposition Yposition Zposition Zrotation Yrotation Xrotation
	JOINT LeftUpLeg
	{
		OFFSET 1.363060 -1.794630 0.839290 
		CHANNELS 3 Zrotation Yrotation Xrotation
		JOINT LeftLeg
		{
			OFFSET 2.448110 -6.726130 0.000000 
			CHANNELS 3 Zrotation Yrotation Xrotation
			JOINT LeftFoot
			{
				OFFSET 2.562200 -7.039590 0.000000 
				CHANNELS 3 Zrotation Yrotation Xrotation
				JOINT LeftToeBase
				{
					OFFSET 0.157640 -0.433110 2.322550 
					CHANNELS 3 Zrotation Yrotation Xrotation
					End Site
					{
						OFFSET 0.000000 0.000000 0.000000 
					}
				}
			}
		}
	}
	JOINT RightUpLeg
	{
		OFFSET -1.305520 -1.794630 0.839290 
		CHANNELS 3 Zrotation Yrotation Xrotation
		JOINT RightLeg
		{
			OFFSET -2.542530 -6.985550 0.000000 
			CHANNELS 3 Zrotation Yrotation Xrotation
			JOINT RightFoot
			{
				OFFSET -2.568260 -7.056230 0.000000 
				CHANNELS 3 Zrotation Yrotation Xrotation
				JOINT RightToeBase
				{
					OFFSET -0.164730 -0.452590 2.363150 
					CHANNELS 3 Zrotation Yrotation Xrotation
					End Site
					{
						OFFSET 0.000000 0.000000 0.000000 
					}
				}
			}
		}
	}
	JOINT Spine
	{
		OFFSET 0.028270 2.035590 -0.193380 
		CHANNELS 3 Zrotation Yrotation Xrotation
		JOINT Spine1
		{
			OFFSET 0.056720 2.048850 -0.042750 
			CHANNELS 3 Zrotation Yrotation Xrotation
			JOINT Neck1
			{
				OFFSET -0.054170 1.746240 0.172020 
				CHANNELS 3 Zrotation Yrotation Xrotation
				JOINT Head
				{
					OFFSET 0.104070 1.761360 -0.123970 
					CHANNELS 3 Zrotation Yrotation Xrotation
					End Site
					{
						OFFSET 0.000000 0.000000 0.000000 
					}
				}
			}
			JOINT LeftArm
			{
				OFFSET 3.362410 1.200890 -0.311210 
				CHANNELS 3 Zrotation Yrotation Xrotation
				JOINT LeftForeArm
				{
					OFFSET 4.983000 -0.000000 -0.000000 
					CHANNELS 3 Zrotation Yrotation Xrotation
					JOINT LeftHand
					{
						OFFSET 3.483560 -0.000000 -0.000000 
						CHANNELS 3 Zrotation Yrotation Xrotation
						JOINT LeftHandIndex1
						{
							OFFSET 0.715260 -0.000000 -0.000000 
							CHANNELS 3 Zrotation Yrotation Xrotation
							End Site
							{
								OFFSET 0.000000 0.000000 0.000000 
							}
						}
					}
				}
			}
			JOINT RightArm
			{
				OFFSET -3.136600 1.374050 -0.404650 
				CHANNELS 3 Zrotation Yrotation Xrotation
				JOINT RightForeArm
				{
					OFFSET -5.241900 -0.000000 -0.000000 
					CHANNELS 3 Zrotation Yrotation Xrotation
					JOINT RightHand
					{
						OFFSET -3.444170 -0.000000 -0.000000 
						CHANNELS 3 Zrotation Yrotation Xrotation
						JOINT RightHandIndex1
						{
							OFFSET -0.622530 -0.000000 -0.000000 
							CHANNELS 3 Zrotation Yrotation Xrotation
							End Site
							{
								OFFSET 0.000000 0.000000 0.000000 
							}
						}
					}
				}
			}
		}
	}
}
MOTION
Frames: 10
Frame Time: 0.041667
7.300577 18.116118 2.601023 39.969130 -88.014874 -27.925943 -3.948002 -25.731818 -49.010015 2.053470 13.750270 35.290072 1.139282 -0.900851 15.670566 1.134100 6.763500 19.016500 26.679054 2.742689 -17.944722 -1.088531 -6.835316 24.275841 -1.797951 8.994573 -8.430222 -0.266100 -3.318500 9.166700 -0.839232 3.930778 -4.429581 -3.323826 2.054502 -2.654413 -8.072744 13.386924 37.623663 -2.296200 6.176100 10.927400 -70.049621 30.089582 -15.352055 120.267560 -47.672703 -86.195436 0.472180 -0.848033 0.101561 -7.125000 0.000000 0.000000 81.569056 -24.794997 -46.037297 -42.164835 40.675503 -17.604294 1.191869 -0.262831 -5.808975 7.125000 0.000000 0.000000 
7.252517 18.107882 2.599218 46.121524 -88.139661 -34.028093 -3.759268 -25.672294 -48.724557 1.885505 13.520423 34.590255 1.174002 -0.698682 16.398925 1.068500 6.571400 18.451800 26.610654 2.836451 -18.060604 -1.132950 -6.969833 24.568156 -1.835685 9.269416 -8.459176 -0.567600 -4.825200 13.410500 -0.896505 3.976573 -4.561973 -3.375727 2.033925 -2.818911 -8.329842 13.394951 37.532269 -2.479100 6.210000 10.854600 -69.854386 30.288542 -14.929574 120.377656 -47.622645 -86.296306 0.490585 -0.851862 -0.082119 -7.125000 0.000000 0.000000 81.909481 -25.085846 -46.231179 -42.172384 40.669770 -17.618812 1.191229 -0.261462 -6.454850 7.125000 0.000000 0.000000 
7.203328 18.097390 2.598767 52.175214 -88.222048 -40.161439 -3.559489 -25.652223 -48.164229 1.669496 13.199478 33.675424 1.230266 -0.577115 17.165505 1.136300 6.770000 19.035600 26.588402 2.750016 -17.882699 -1.121006 -6.964584 24.501224 -1.856839 9.587064 -8.276215 -0.583600 -4.891700 13.599800 -0.943614 3.916755 -4.626076 -3.453901 1.964240 -2.944734 -8.290825 13.641485 37.647843 -2.460900 6.350800 10.933300 -69.715756 30.469158 -14.765422 120.416059 -47.593358 -86.325985 0.503232 -0.853442 -0.091159 -7.125000 0.000000 0.000000 82.226231 -25.294497 -46.297568 -42.221816 40.721580 -17.705611 1.182388 -0.255898 -7.039993 7.125000 0.000000 0.000000 
7.152898 18.081708 2.597639 57.250925 -88.294746 -45.345860 -3.568888 -25.436250 -47.647191 1.514996 12.959709 33.072108 1.333624 -0.896352 17.724841 0.562200 4.802300 13.345600 26.586327 2.778945 -17.814044 -1.186676 -7.087210 24.836563 -1.923393 10.256630 -8.140627 -0.650400 -5.158600 14.361500 -0.998202 3.880664 -4.594906 -3.569250 1.913387 -2.806017 -8.528536 13.807574 37.240673 -2.599600 6.458500 10.793600 -69.409761 30.350213 -14.684698 120.269239 -47.629962 -86.179748 0.496425 -0.842616 0.020476 -7.125000 0.000000 0.000000 82.626593 -25.171488 -46.772240 -42.235794 40.747439 -17.718911 1.177012 -0.266624 -6.904680 7.125000 0.000000 0.000000 
7.109689 18.140825 2.588726 63.045304 -88.322408 -51.212741 -2.169957 -26.415214 -48.424327 1.414631 12.882192 32.174537 1.089731 2.416978 20.387885 3.141300 10.920400 32.011900 26.587192 2.836167 -17.788872 -1.238354 -7.184146 25.100485 -1.972583 10.819521 -7.994548 -0.749900 -5.531200 15.430200 -0.971169 3.761673 -4.538621 -3.515800 1.827806 -2.553145 -8.915297 14.033649 36.589156 -2.762600 6.567000 10.570500 -69.296777 30.276661 -14.785222 120.116721 -47.666340 -86.031411 0.490565 -0.835949 -0.029711 -7.125000 0.000000 0.000000 82.699128 -24.986381 -46.991737 -42.257765 40.769112 -17.729544 1.173852 -0.274201 -6.765949 7.125000 0.000000 0.000000 
7.043239 18.044366 2.595721 71.432744 -88.226359 -59.606148 -3.330871 -25.197713 -47.080997 1.258873 12.582320 32.001471 1.470341 -0.917589 19.103937 0.452500 4.315500 11.966100 26.717397 2.424815 -17.902575 -1.311950 -7.337551 25.505254 -2.024143 10.845572 -8.478530 -0.815100 -5.761100 16.092700 -0.980827 3.651792 -4.517363 -3.516353 1.741165 -2.454937 -9.031368 14.272319 36.462292 -2.779800 6.676600 10.586700 -69.156647 30.257629 -14.732394 119.986016 -47.707086 -85.888191 0.499437 -0.834573 -0.152063 -7.125000 0.000000 0.000000 82.732963 -24.995054 -47.047120 -42.198223 40.746711 -17.712231 1.172872 -0.267256 -6.843373 7.125000 0.000000 0.000000 
6.993486 18.044478 2.592562 82.529022 -87.963381 -70.719104 -3.194162 -25.103383 -46.764539 1.165918 12.432261 31.554566 1.461533 -0.626344 19.438977 0.548900 4.746100 13.185900 26.516190 2.628361 -17.822890 -1.358547 -7.414804 25.725635 -2.078353 11.633089 -8.135861 -0.997500 -6.356100 17.821100 -1.002952 3.605311 -4.516808 -3.494758 1.690532 -2.458912 -9.047331 14.528251 36.757231 -2.727500 6.781100 10.775600 -69.184822 30.290349 -14.649742 120.132072 -47.678546 -86.015205 0.510802 -0.840956 -0.182337 -7.125000 0.000000 0.000000 82.855108 -25.141280 -47.178499 -42.083069 40.665435 -17.615846 1.177526 -0.270934 -6.912088 7.125000 0.000000 0.000000 
6.942267 18.025186 2.590870 92.820732 -87.693057 -81.050929 -3.069707 -24.943787 -46.718233 1.141954 12.417114 31.452279 1.461637 -0.517231 19.595074 0.534700 4.685300 13.013200 26.591250 2.415005 -17.950917 -1.485066 -7.609764 26.350929 -2.149614 11.901498 -8.541291 -0.871900 -5.953500 16.649500 -0.979531 3.570047 -4.519154 -3.422106 1.665864 -2.509942 -8.996527 14.769482 37.170498 -2.646800 6.879100 10.994400 -69.265539 30.389136 -14.640100 120.378181 -47.608498 -86.251577 0.519682 -0.843700 -0.278197 -7.125000 0.000000 0.000000 82.947682 -25.183669 -47.359628 -42.025129 40.626590 -17.564726 1.177142 -0.279371 -6.916992 7.125000 0.000000 0.000000 
6.887437 18.002397 2.591208 99.564156 -87.520267 -87.868901 -2.924298 -24.855851 -46.542286 1.075490 12.329823 31.156273 1.471258 -0.402552 19.813525 0.548300 4.743700 13.178900 26.717483 2.054897 -17.938332 -1.562981 -7.698855 26.694244 -2.195789 12.032482 -8.840826 -0.789800 -5.673300 15.839300 -1.007342 3.555330 -4.592047 -3.545086 1.657546 -2.698492 -8.639479 14.849483 37.430044 -2.501800 6.947200 11.074200 -69.007759 30.370800 -14.488089 120.243394 -47.636434 -86.126327 0.515755 -0.833955 -0.372990 -7.125000 0.000000 0.000000 83.256020 -25.296625 -47.674654 -42.063805 40.661345 -17.610970 1.172625 -0.279587 -6.941988 7.125000 0.000000 0.000000 
6.836556 17.986377 2.589403 113.848998 -87.014863 -101.967765 -2.580237 -24.556289 -46.705121 1.012181 12.319811 30.851632 1.418558 0.285718 20.216057 0.748000 5.524200 15.410000 26.765856 2.180140 -18.010037 -1.654478 -7.765748 27.065797 -2.240636 12.443639 -8.840021 -0.806700 -5.732000 16.008900 -1.044349 3.689296 -4.775446 -3.607899 1.756072 -2.862529 -8.423824 14.980019 37.361591 -2.423900 7.039300 11.002900 -68.887874 30.466119 -14.376213 120.107736 -47.651563 -86.011146 0.504772 -0.832628 -0.383088 -7.125000 0.000000 0.000000 83.546088 -25.637617 -47.846547 -42.127516 40.685310 -17.653062 1.176284 -0.273933 -6.988064 7.125000 0.000000 0.000000 
